<svg xmlns="http://www.w3.org/2000/svg" width="1800" height="900" viewBox="0 0 1800 900">
<defs><marker id="arrow" markerWidth="10" markerHeight="10" refX="10" refY="3" orient="auto" markerUnits="strokeWidth"><path d="M0,0 L0,6 L9,3 z" fill="#333"/></marker></defs>
<rect width="100%" height="100%" fill="white"/>
<text x="900.0" y="60" font-family="Arial" font-size="38" font-weight="bold" text-anchor="middle">FSK Waveform Generation Chain</text>
<rect x="40" y="330" width="160" height="110" rx="18" fill="#ecf5ff" stroke="#333" stroke-width="3"/>
<text x="120.0" y="385.0" font-family="Arial" font-size="24" text-anchor="middle" dominant-baseline="middle">Message</text>
<line x1="200" y1="385.0" x2="230" y2="385.0" stroke="#333" stroke-width="4" marker-end="url(#arrow)"/>
<rect x="230" y="330" width="170" height="110" rx="18" fill="#ebfaf1" stroke="#333" stroke-width="3"/>
<text x="315.0" y="373.0" font-family="Arial" font-size="24" text-anchor="middle" dominant-baseline="middle">ASCII</text>
<text x="315.0" y="401.0" font-family="Arial" font-size="24" text-anchor="middle" dominant-baseline="middle">Bytes</text>
<line x1="400" y1="385.0" x2="430" y2="385.0" stroke="#333" stroke-width="4" marker-end="url(#arrow)"/>
<rect x="430" y="330" width="170" height="110" rx="18" fill="#ebfaf1" stroke="#333" stroke-width="3"/>
<text x="515.0" y="385.0" font-family="Arial" font-size="24" text-anchor="middle" dominant-baseline="middle">Bits</text>
<line x1="600" y1="385.0" x2="630" y2="385.0" stroke="#333" stroke-width="4" marker-end="url(#arrow)"/>
<rect x="630" y="330" width="210" height="110" rx="18" fill="#fff4e6" stroke="#333" stroke-width="3"/>
<text x="735.0" y="373.0" font-family="Arial" font-size="24" text-anchor="middle" dominant-baseline="middle">Bit -></text>
<text x="735.0" y="401.0" font-family="Arial" font-size="24" text-anchor="middle" dominant-baseline="middle">Frequency</text>
<line x1="840" y1="385.0" x2="870" y2="385.0" stroke="#333" stroke-width="4" marker-end="url(#arrow)"/>
<rect x="870" y="330" width="210" height="110" rx="18" fill="#fff4e6" stroke="#333" stroke-width="3"/>
<text x="975.0" y="373.0" font-family="Arial" font-size="24" text-anchor="middle" dominant-baseline="middle">Sine</text>
<text x="975.0" y="401.0" font-family="Arial" font-size="24" text-anchor="middle" dominant-baseline="middle">Segments</text>
<line x1="1080" y1="385.0" x2="1110" y2="385.0" stroke="#333" stroke-width="4" marker-end="url(#arrow)"/>
<rect x="1110" y="330" width="180" height="110" rx="18" fill="#f5f0ff" stroke="#333" stroke-width="3"/>
<text x="1200.0" y="385.0" font-family="Arial" font-size="24" text-anchor="middle" dominant-baseline="middle">U16</text>
<line x1="1290" y1="385.0" x2="1320" y2="385.0" stroke="#333" stroke-width="4" marker-end="url(#arrow)"/>
<rect x="1320" y="330" width="200" height="110" rx="18" fill="#f5f0ff" stroke="#333" stroke-width="3"/>
<text x="1420.0" y="385.0" font-family="Arial" font-size="24" text-anchor="middle" dominant-baseline="middle">Padding</text>
<line x1="1520" y1="385.0" x2="1550" y2="385.0" stroke="#333" stroke-width="4" marker-end="url(#arrow)"/>
<rect x="1550" y="330" width="190" height="110" rx="18" fill="#ebfaf1" stroke="#333" stroke-width="3"/>
<text x="1645.0" y="373.0" font-family="Arial" font-size="24" text-anchor="middle" dominant-baseline="middle">TiePie</text>
<text x="1645.0" y="401.0" font-family="Arial" font-size="24" text-anchor="middle" dominant-baseline="middle">Memory</text>
</svg>