<svg xmlns="http://www.w3.org/2000/svg" width="1800" height="900" viewBox="0 0 1800 900">
<defs><marker id="arrow" markerWidth="10" markerHeight="10" refX="10" refY="3" orient="auto" markerUnits="strokeWidth"><path d="M0,0 L0,6 L9,3 z" fill="#333"/></marker></defs>
<rect width="100%" height="100%" fill="white"/>
<text x="900.0" y="60" font-family="Arial" font-size="38" font-weight="bold" text-anchor="middle">Overall Implementation Flow</text>
<rect x="60" y="310" width="180" height="120" rx="18" fill="#ecf5ff" stroke="#333" stroke-width="3"/>
<text x="150.0" y="370.0" font-family="Arial" font-size="24" text-anchor="middle" dominant-baseline="middle">Message</text>
<line x1="240" y1="370.0" x2="270" y2="370.0" stroke="#333" stroke-width="4" marker-end="url(#arrow)"/>
<rect x="270" y="310" width="180" height="120" rx="18" fill="#ebfaf1" stroke="#333" stroke-width="3"/>
<text x="360.0" y="370.0" font-family="Arial" font-size="24" text-anchor="middle" dominant-baseline="middle">Bits</text>
<line x1="450" y1="370.0" x2="480" y2="370.0" stroke="#333" stroke-width="4" marker-end="url(#arrow)"/>
<rect x="480" y="310" width="220" height="120" rx="18" fill="#fff4e6" stroke="#333" stroke-width="3"/>
<text x="590.0" y="358.0" font-family="Arial" font-size="24" text-anchor="middle" dominant-baseline="middle">FSK</text>
<text x="590.0" y="386.0" font-family="Arial" font-size="24" text-anchor="middle" dominant-baseline="middle">Waveform</text>
<line x1="700" y1="370.0" x2="730" y2="370.0" stroke="#333" stroke-width="4" marker-end="url(#arrow)"/>
<rect x="730" y="310" width="240" height="120" rx="18" fill="#f5f0ff" stroke="#333" stroke-width="3"/>
<text x="850.0" y="358.0" font-family="Arial" font-size="24" text-anchor="middle" dominant-baseline="middle">TiePie</text>
<text x="850.0" y="386.0" font-family="Arial" font-size="24" text-anchor="middle" dominant-baseline="middle">Generator</text>
<line x1="970" y1="370.0" x2="1000" y2="370.0" stroke="#333" stroke-width="4" marker-end="url(#arrow)"/>
<rect x="1000" y="310" width="200" height="120" rx="18" fill="#f5f0ff" stroke="#333" stroke-width="3"/>
<text x="1100.0" y="358.0" font-family="Arial" font-size="24" text-anchor="middle" dominant-baseline="middle">CH1</text>
<text x="1100.0" y="386.0" font-family="Arial" font-size="24" text-anchor="middle" dominant-baseline="middle">Acquire</text>
<line x1="1200" y1="370.0" x2="1230" y2="370.0" stroke="#333" stroke-width="4" marker-end="url(#arrow)"/>
<rect x="1230" y="310" width="200" height="120" rx="18" fill="#fff4e6" stroke="#333" stroke-width="3"/>
<text x="1330.0" y="370.0" font-family="Arial" font-size="24" text-anchor="middle" dominant-baseline="middle">Decode</text>
<line x1="1430" y1="370.0" x2="1460" y2="370.0" stroke="#333" stroke-width="4" marker-end="url(#arrow)"/>
<rect x="1460" y="310" width="240" height="120" rx="18" fill="#ecf5ff" stroke="#333" stroke-width="3"/>
<text x="1580.0" y="358.0" font-family="Arial" font-size="24" text-anchor="middle" dominant-baseline="middle">Received</text>
<text x="1580.0" y="386.0" font-family="Arial" font-size="24" text-anchor="middle" dominant-baseline="middle">Message</text>
</svg>